<svg xmlns="http://www.w3.org/2000/svg">
  <path d="M26.1975 19.6563C26.4525 19.0488 25.7238 18.5313 25.1125 18.8013C23.8907 19.3376 22.5706 19.6134 21.2362 19.6113C16.005 19.6113 11.765 15.4563 11.765 10.33C11.7631 8.59918 12.2548 6.90371 13.1825 5.4425C13.5375 4.8825 13.1112 4.1075 12.4613 4.2725C7.45 5.55125 3.75 10.0163 3.75 15.3275C3.75 21.6363 8.96875 26.75 15.4075 26.75C20.2825 26.75 24.4575 23.8188 26.1975 19.6563Z" fill="currentColor"/>
  <path d="M19.5136 4.37875C18.8511 3.93625 18.0611 4.72625 18.5024 5.38875L19.2899 6.57C19.6093 7.04896 19.7798 7.61178 19.7798 8.1875C19.7798 8.76322 19.6093 9.32605 19.2899 9.805L18.5024 10.9863C18.0611 11.6488 18.8524 12.4388 19.5149 11.9963L20.6949 11.2088C21.1738 10.8893 21.7367 10.7188 22.3124 10.7188C22.8881 10.7188 23.4509 10.8893 23.9299 11.2088L25.1111 11.9963C25.7736 12.4388 26.5636 11.6488 26.1211 10.9863L25.3336 9.805C25.0142 9.32605 24.8437 8.76322 24.8437 8.1875C24.8437 7.61178 25.0142 7.04896 25.3336 6.57L26.1211 5.38875C26.5636 4.72625 25.7736 3.93625 25.1099 4.37875L23.9299 5.16625C23.4509 5.48571 22.8881 5.65619 22.3124 5.65619C21.7367 5.65619 21.1738 5.48571 20.6949 5.16625L19.5136 4.37875Z" fill="currentColor"/>
</svg>
