<svg xmlns="http://www.w3.org/2000/svg">
  <rect width="24" height="24" x=".463" rx="8"/>
  <path fill="currentColor" fill-rule="evenodd" d="M4 17.4286V9.99455L8.26814 13.7705L8.26812 13.7706L8.27233 13.7743C9.01628 14.419 10.1188 14.4265 10.8714 13.7919L12.9147 12.0689C12.9409 12.0493 12.9665 12.0287 12.9917 12.0071L15.8182 9.58441V18.9524H5.52381C4.68223 18.9524 4 18.2702 4 17.4286ZM16.9091 18.9524H18.4762C19.3177 18.9524 20 18.2702 20 17.4286V6L16.9091 8.64935V18.9524ZM8.98865 12.9514L4 8.538V6L11.0083 12.0071C11.057 12.0489 11.1076 12.087 11.1599 12.1216L10.1682 12.9578C9.82673 13.2458 9.32679 13.2429 8.98865 12.9514Z" clip-rule="evenodd"/>
</svg>
