<?xml version="1.0" standalone="no"?>
<!DOCTYPE svg PUBLIC "-//W3C//DTD SVG 20010904//EN" "http://www.w3.org/TR/2001/REC-SVG-20010904/DTD/svg10.dtd">
<svg version="1.0" xmlns="http://www.w3.org/2000/svg" width="400.000000pt" height="400.000000pt" viewBox="0 0 400.000000 400.000000" preserveAspectRatio="xMidYMid meet">
<metadata>
Created by potrace 1.14, written by Peter Selinger 2001-2017
</metadata>
<g transform="translate(0.000000,400.000000) scale(0.100000,-0.100000)"
fill="#000000" stroke="none">
<path d="M1858 3995 c-2 -2 -32 -6 -68 -10 -36 -4 -78 -8 -95 -10 -16 -2 -50
-8 -75 -14 -25 -5 -60 -13 -78 -16 -42 -7 -220 -64 -247 -78 -11 -6 -27 -12
-35 -13 -19 -4 -110 -45 -129 -58 -7 -6 -20 -11 -29 -12 -8 -2 -18 -6 -21 -11
-3 -4 -12 -9 -19 -11 -34 -7 -272 -168 -357 -241 -78 -68 -273 -271 -261 -271
3 0 -11 -17 -29 -37 -19 -21 -35 -43 -35 -50 0 -6 -4 -13 -9 -15 -14 -5 -99
-141 -150 -241 -113 -220 -177 -438 -210 -711 -9 -77 -7 -343 3 -421 13 -93
26 -170 35 -202 5 -18 8 -33 5 -33 -2 0 2 -13 10 -29 9 -16 13 -31 10 -33 -2
-3 0 -18 7 -34 6 -16 12 -36 14 -44 16 -75 112 -293 173 -394 23 -37 42 -72
42 -77 0 -5 5 -9 10 -9 6 0 10 -6 10 -13 0 -7 11 -25 25 -40 14 -15 23 -27 19
-27 -3 0 7 -15 22 -34 16 -18 39 -47 51 -62 45 -59 70 -83 78 -76 5 4 5 2 2
-4 -7 -13 146 -168 156 -158 4 4 7 1 8 -7 0 -15 130 -119 148 -119 6 0 11 -4
11 -8 0 -11 65 -53 107 -71 18 -7 30 -17 27 -22 -3 -5 2 -6 10 -3 9 3 16 1 16
-6 0 -6 4 -8 10 -5 5 3 10 1 10 -4 0 -6 7 -11 15 -11 8 0 15 -5 15 -12 0 -6 3
-8 6 -5 4 3 18 -2 32 -13 13 -11 28 -17 33 -14 5 3 9 0 9 -6 0 -6 4 -9 9 -6 5
3 14 -1 21 -9 6 -7 18 -11 26 -8 8 3 14 0 14 -7 0 -6 4 -8 10 -5 5 3 10 1 10
-5 0 -6 5 -8 10 -5 6 3 10 1 10 -5 0 -7 7 -10 15 -6 8 3 15 1 15 -5 0 -6 5 -7
10 -4 6 3 10 1 10 -5 0 -6 4 -9 9 -6 5 3 21 -1 37 -9 15 -7 31 -12 36 -9 4 3
8 0 8 -6 0 -7 7 -10 15 -6 8 3 15 1 15 -5 0 -6 4 -7 10 -4 5 3 16 3 22 -2 13
-8 29 -12 61 -15 9 -1 17 -6 17 -11 0 -5 7 -6 16 -3 9 3 21 3 27 -1 7 -4 20
-8 30 -9 9 -1 18 -2 20 -4 4 -3 40 -10 77 -15 19 -2 35 -5 35 -5 0 -11 397
-15 490 -5 59 6 100 12 100 15 0 1 9 3 20 5 11 1 34 5 50 9 17 3 40 8 51 10
12 2 38 9 57 14 20 6 38 7 41 4 3 -3 6 0 6 7 0 8 7 11 15 7 8 -3 15 0 15 6 0
6 3 8 7 5 3 -4 13 -1 21 6 13 10 14 9 7 -3 -5 -9 0 -8 13 4 12 11 22 16 22 11
0 -4 7 -2 15 5 8 7 15 9 15 5 0 -4 6 -2 13 4 8 6 17 8 20 4 4 -3 7 -2 7 4 0 5
6 10 13 10 22 1 41 8 55 21 8 7 18 10 23 7 5 -4 9 -1 9 5 0 6 5 8 10 5 6 -3
10 -1 10 6 0 7 3 9 6 6 4 -4 19 2 34 13 15 11 30 17 34 13 3 -3 6 -1 6 6 0 7
5 9 10 6 6 -3 10 -1 10 5 0 6 5 8 10 5 6 -3 13 1 16 9 3 9 10 13 15 10 5 -3 9
0 9 6 0 6 4 9 9 5 5 -3 12 -1 16 5 3 5 21 17 39 25 18 9 43 25 55 36 11 11 21
17 21 14 0 -16 178 133 280 235 105 105 250 282 249 304 0 5 4 12 9 15 39 25
242 441 216 441 -4 0 -1 6 5 14 11 13 54 161 66 224 3 15 7 38 10 52 22 109
31 223 30 370 -2 153 -11 269 -25 306 -5 12 -7 24 -4 27 5 4 -11 84 -23 117
-3 8 -7 27 -9 41 -6 43 -92 283 -104 287 -5 2 -8 7 -5 12 9 14 -140 286 -192
350 -6 8 -32 42 -57 76 -61 81 -226 255 -237 248 -5 -3 -9 0 -9 6 0 13 -71 76
-82 73 -4 -2 -8 1 -8 7 0 5 -21 24 -47 41 -27 18 -49 36 -51 41 -2 4 -8 8 -14
8 -5 0 -16 7 -25 15 -8 8 -19 13 -24 10 -5 -4 -9 -2 -9 4 0 18 -210 129 -350
184 -75 29 -144 51 -250 77 -98 24 -133 31 -245 45 -54 7 -361 15 -367 10z"/>
</g>
</svg>
